<mxfile host="app.diagrams.net" modified="2022-05-29T14:36:21.579Z" agent="5.0 (Macintosh; Intel Mac OS X 10_15_7) AppleWebKit/537.36 (KHTML, like Gecko) Chrome/102.0.5005.61 Safari/537.36" etag="xC5fMwMKJS6uzEr7UR6Z" version="18.1.1" type="github" pages="2">
  <diagram id="7vi9ZKF14BjsJYX0bgTo" name="Page-2">
    <mxGraphModel dx="1018" dy="616" grid="1" gridSize="10" guides="1" tooltips="1" connect="1" arrows="1" fold="1" page="1" pageScale="1" pageWidth="827" pageHeight="1169" math="0" shadow="0">
      <root>
        <mxCell id="0" />
        <mxCell id="1" parent="0" />
      </root>
    </mxGraphModel>
  </diagram>
  <diagram id="Yy21wiFcRlQySL_Cuijp" name="Page-1">
    <mxGraphModel dx="1018" dy="616" grid="1" gridSize="10" guides="1" tooltips="1" connect="1" arrows="1" fold="1" page="1" pageScale="1" pageWidth="827" pageHeight="1169" math="0" shadow="0">
      <root>
        <mxCell id="0" />
        <mxCell id="1" parent="0" />
        <mxCell id="AlHU9FM85FS0rlN2TEWG-18" value="" style="rounded=1;whiteSpace=wrap;html=1;fontFamily=Architects Daughter;fontSource=https%3A%2F%2Ffonts.googleapis.com%2Fcss%3Ffamily%3DArchitects%2BDaughter;fillColor=none;dashed=1;" vertex="1" parent="1">
          <mxGeometry x="120" y="475" width="710" height="95" as="geometry" />
        </mxCell>
        <mxCell id="HZSYPN3baiXShOGoaGRW-11" value="" style="rounded=1;whiteSpace=wrap;html=1;fontFamily=Architects Daughter;fontSource=https%3A%2F%2Ffonts.googleapis.com%2Fcss%3Ffamily%3DArchitects%2BDaughter;fillColor=none;dashed=1;" parent="1" vertex="1">
          <mxGeometry x="112" y="140" width="358" height="280" as="geometry" />
        </mxCell>
        <mxCell id="frXhD2S2RiPE34R9jUj7-17" value="" style="rounded=1;whiteSpace=wrap;html=1;fontFamily=Architects Daughter;fontSource=https%3A%2F%2Ffonts.googleapis.com%2Fcss%3Ffamily%3DArchitects%2BDaughter;fillColor=none;dashed=1;" parent="1" vertex="1">
          <mxGeometry x="480" y="320" width="350" height="100" as="geometry" />
        </mxCell>
        <mxCell id="frXhD2S2RiPE34R9jUj7-2" value="" style="aspect=fixed;html=1;points=[];align=center;image;fontSize=12;image=img/lib/azure2/general/Powershell.svg;fontFamily=Architects Daughter;fontSource=https%3A%2F%2Ffonts.googleapis.com%2Fcss%3Ffamily%3DArchitects%2BDaughter;" parent="1" vertex="1">
          <mxGeometry x="155.5" y="330" width="65" height="52" as="geometry" />
        </mxCell>
        <mxCell id="frXhD2S2RiPE34R9jUj7-4" value="" style="endArrow=none;html=1;fontFamily=Architects Daughter;fontSource=https%3A%2F%2Ffonts.googleapis.com%2Fcss%3Ffamily%3DArchitects%2BDaughter;endFill=0;startArrow=classic;startFill=1;curved=1;dashed=1;strokeWidth=2;fillColor=#f5f5f5;strokeColor=#666666;" parent="1" edge="1">
          <mxGeometry width="50" height="50" relative="1" as="geometry">
            <mxPoint x="190" y="310" as="sourcePoint" />
            <mxPoint x="190" y="250" as="targetPoint" />
          </mxGeometry>
        </mxCell>
        <mxCell id="frXhD2S2RiPE34R9jUj7-5" value="GET information with Graph" style="text;html=1;align=center;verticalAlign=middle;resizable=0;points=[];autosize=1;strokeColor=none;fillColor=none;fontFamily=Architects Daughter;rotation=-30;" parent="1" vertex="1">
          <mxGeometry x="180" y="200" width="170" height="20" as="geometry" />
        </mxCell>
        <mxCell id="frXhD2S2RiPE34R9jUj7-22" value="" style="endArrow=classic;html=1;fontFamily=Architects Daughter;fontSource=https%3A%2F%2Ffonts.googleapis.com%2Fcss%3Ffamily%3DArchitects%2BDaughter;endFill=1;startArrow=none;startFill=0;curved=1;dashed=1;strokeWidth=2;fillColor=#f5f5f5;strokeColor=#666666;" parent="1" edge="1">
          <mxGeometry width="50" height="50" relative="1" as="geometry">
            <mxPoint x="714.55" y="308" as="sourcePoint" />
            <mxPoint x="714.55" y="248" as="targetPoint" />
          </mxGeometry>
        </mxCell>
        <mxCell id="HZSYPN3baiXShOGoaGRW-2" value="Data Collection Box" style="text;html=1;align=center;verticalAlign=middle;resizable=0;points=[];autosize=1;strokeColor=none;fillColor=none;fontFamily=Architects Daughter;rotation=0;" parent="1" vertex="1">
          <mxGeometry x="540" y="290" width="120" height="20" as="geometry" />
        </mxCell>
        <mxCell id="HZSYPN3baiXShOGoaGRW-4" value="Output" style="text;html=1;align=center;verticalAlign=middle;resizable=0;points=[];autosize=1;strokeColor=none;fillColor=none;fontFamily=Architects Daughter;fontSource=https%3A%2F%2Ffonts.googleapis.com%2Fcss%3Ffamily%3DArchitects%2BDaughter;" parent="1" vertex="1">
          <mxGeometry x="730" y="278" width="50" height="20" as="geometry" />
        </mxCell>
        <mxCell id="HZSYPN3baiXShOGoaGRW-5" value="" style="rounded=1;whiteSpace=wrap;html=1;strokeWidth=2;fillWeight=4;hachureGap=8;hachureAngle=45;fillColor=#1ba1e2;sketch=1;fontFamily=Architects Daughter;fontSource=https%3A%2F%2Ffonts.googleapis.com%2Fcss%3Ffamily%3DArchitects%2BDaughter;" parent="1" vertex="1">
          <mxGeometry x="302" y="339" width="99" height="41" as="geometry" />
        </mxCell>
        <mxCell id="HZSYPN3baiXShOGoaGRW-6" value="Results" style="text;html=1;align=center;verticalAlign=middle;resizable=0;points=[];autosize=1;strokeColor=none;fillColor=none;fontFamily=Architects Daughter;" parent="1" vertex="1">
          <mxGeometry x="321" y="386" width="60" height="20" as="geometry" />
        </mxCell>
        <mxCell id="HZSYPN3baiXShOGoaGRW-7" value="" style="endArrow=none;html=1;fontFamily=Architects Daughter;fontSource=https%3A%2F%2Ffonts.googleapis.com%2Fcss%3Ffamily%3DArchitects%2BDaughter;endFill=0;startArrow=classic;startFill=1;curved=1;dashed=1;strokeWidth=2;fillColor=#f5f5f5;strokeColor=#666666;" parent="1" edge="1">
          <mxGeometry width="50" height="50" relative="1" as="geometry">
            <mxPoint x="280" y="361" as="sourcePoint" />
            <mxPoint x="240" y="361" as="targetPoint" />
          </mxGeometry>
        </mxCell>
        <mxCell id="HZSYPN3baiXShOGoaGRW-8" value="PowerShell" style="text;html=1;strokeColor=none;fillColor=none;align=center;verticalAlign=middle;whiteSpace=wrap;rounded=0;fontFamily=Architects Daughter;fontSource=https%3A%2F%2Ffonts.googleapis.com%2Fcss%3Ffamily%3DArchitects%2BDaughter;" parent="1" vertex="1">
          <mxGeometry x="155.5" y="390" width="60" height="30" as="geometry" />
        </mxCell>
        <mxCell id="AlHU9FM85FS0rlN2TEWG-1" value="" style="sketch=0;aspect=fixed;html=1;points=[];align=center;image;fontSize=12;image=img/lib/mscae/API_Management.svg;" vertex="1" parent="1">
          <mxGeometry x="155.5" y="166.35" width="71.43" height="60" as="geometry" />
        </mxCell>
        <mxCell id="AlHU9FM85FS0rlN2TEWG-2" value="Log Analytics" style="aspect=fixed;html=1;points=[];align=center;image;fontSize=12;image=img/lib/azure2/analytics/Log_Analytics_Workspaces.svg;fontFamily=Architects Daughter;fontSource=https%3A%2F%2Ffonts.googleapis.com%2Fcss%3Ffamily%3DArchitects%2BDaughter;" vertex="1" parent="1">
          <mxGeometry x="690" y="156" width="64" height="64" as="geometry" />
        </mxCell>
        <mxCell id="AlHU9FM85FS0rlN2TEWG-3" value="" style="aspect=fixed;html=1;points=[];align=center;image;fontSize=12;image=img/lib/azure2/networking/Private_Endpoint.svg;fontFamily=Architects Daughter;fontSource=https%3A%2F%2Ffonts.googleapis.com%2Fcss%3Ffamily%3DArchitects%2BDaughter;" vertex="1" parent="1">
          <mxGeometry x="519.45" y="331.5" width="61.09" height="56" as="geometry" />
        </mxCell>
        <mxCell id="AlHU9FM85FS0rlN2TEWG-4" value="" style="endArrow=none;html=1;fontFamily=Architects Daughter;fontSource=https%3A%2F%2Ffonts.googleapis.com%2Fcss%3Ffamily%3DArchitects%2BDaughter;endFill=0;startArrow=classic;startFill=1;curved=1;dashed=1;strokeWidth=2;fillColor=#f5f5f5;strokeColor=#666666;" edge="1" parent="1">
          <mxGeometry width="50" height="50" relative="1" as="geometry">
            <mxPoint x="460" y="361" as="sourcePoint" />
            <mxPoint x="420" y="361" as="targetPoint" />
          </mxGeometry>
        </mxCell>
        <mxCell id="AlHU9FM85FS0rlN2TEWG-5" value="Deliver data" style="text;html=1;align=center;verticalAlign=middle;resizable=0;points=[];autosize=1;strokeColor=none;fillColor=none;fontFamily=Architects Daughter;rotation=45;" vertex="1" parent="1">
          <mxGeometry x="374" y="310" width="80" height="20" as="geometry" />
        </mxCell>
        <mxCell id="AlHU9FM85FS0rlN2TEWG-7" value="" style="aspect=fixed;html=1;points=[];align=center;image;fontSize=12;image=img/lib/azure2/general/Input_Output.svg;fontFamily=Architects Daughter;fontSource=https%3A%2F%2Ffonts.googleapis.com%2Fcss%3Ffamily%3DArchitects%2BDaughter;rotation=-90;" vertex="1" parent="1">
          <mxGeometry x="686.33" y="339.33" width="59.35" height="51" as="geometry" />
        </mxCell>
        <mxCell id="AlHU9FM85FS0rlN2TEWG-8" value="Data Collection Endpoint" style="text;html=1;align=center;verticalAlign=middle;resizable=0;points=[];autosize=1;strokeColor=none;fillColor=none;fontFamily=Architects Daughter;rotation=0;" vertex="1" parent="1">
          <mxGeometry x="475" y="395" width="150" height="20" as="geometry" />
        </mxCell>
        <mxCell id="AlHU9FM85FS0rlN2TEWG-9" value="Data Collection Rule" style="text;html=1;align=center;verticalAlign=middle;resizable=0;points=[];autosize=1;strokeColor=none;fillColor=none;fontFamily=Architects Daughter;rotation=0;" vertex="1" parent="1">
          <mxGeometry x="655" y="395" width="130" height="20" as="geometry" />
        </mxCell>
        <mxCell id="AlHU9FM85FS0rlN2TEWG-10" value="Service Principal" style="text;html=1;align=center;verticalAlign=middle;resizable=0;points=[];autosize=1;strokeColor=none;fillColor=none;fontFamily=Architects Daughter;rotation=0;" vertex="1" parent="1">
          <mxGeometry x="226.93" y="536" width="110" height="20" as="geometry" />
        </mxCell>
        <mxCell id="AlHU9FM85FS0rlN2TEWG-13" value="" style="aspect=fixed;html=1;points=[];align=center;image;fontSize=12;image=img/lib/azure2/identity/App_Registrations.svg;fontFamily=Architects Daughter;fontSource=https%3A%2F%2Ffonts.googleapis.com%2Fcss%3Ffamily%3DArchitects%2BDaughter;" vertex="1" parent="1">
          <mxGeometry x="269.35" y="492" width="43.31" height="44" as="geometry" />
        </mxCell>
        <mxCell id="AlHU9FM85FS0rlN2TEWG-14" value="" style="aspect=fixed;html=1;points=[];align=center;image;fontSize=12;image=img/lib/azure2/identity/Azure_Active_Directory.svg;fontFamily=Architects Daughter;fontSource=https%3A%2F%2Ffonts.googleapis.com%2Fcss%3Ffamily%3DArchitects%2BDaughter;" vertex="1" parent="1">
          <mxGeometry x="449.45" y="489" width="55.78" height="51" as="geometry" />
        </mxCell>
        <mxCell id="AlHU9FM85FS0rlN2TEWG-15" value="" style="endArrow=classic;html=1;fontFamily=Architects Daughter;fontSource=https%3A%2F%2Ffonts.googleapis.com%2Fcss%3Ffamily%3DArchitects%2BDaughter;endFill=1;startArrow=none;startFill=0;curved=1;dashed=1;strokeWidth=2;fillColor=#f5f5f5;strokeColor=#666666;" edge="1" parent="1">
          <mxGeometry width="50" height="50" relative="1" as="geometry">
            <mxPoint x="401" y="521.5" as="sourcePoint" />
            <mxPoint x="361" y="521.5" as="targetPoint" />
          </mxGeometry>
        </mxCell>
        <mxCell id="AlHU9FM85FS0rlN2TEWG-16" value="Monitoring Metric Publisher" style="aspect=fixed;html=1;points=[];align=center;image;fontSize=12;image=img/lib/azure2/intune/Azure_AD_Roles_and_Administrators.svg;fontFamily=Architects Daughter;fontSource=https%3A%2F%2Ffonts.googleapis.com%2Fcss%3Ffamily%3DArchitects%2BDaughter;" vertex="1" parent="1">
          <mxGeometry x="696" y="492" width="44" height="44" as="geometry" />
        </mxCell>
        <mxCell id="AlHU9FM85FS0rlN2TEWG-17" value="" style="endArrow=classic;html=1;fontFamily=Architects Daughter;fontSource=https%3A%2F%2Ffonts.googleapis.com%2Fcss%3Ffamily%3DArchitects%2BDaughter;endFill=1;startArrow=none;startFill=0;curved=1;dashed=1;strokeWidth=2;fillColor=#f5f5f5;strokeColor=#666666;entryX=0.643;entryY=1.02;entryDx=0;entryDy=0;entryPerimeter=0;" edge="1" parent="1">
          <mxGeometry width="50" height="50" relative="1" as="geometry">
            <mxPoint x="715" y="466" as="sourcePoint" />
            <mxPoint x="715.05" y="428" as="targetPoint" />
          </mxGeometry>
        </mxCell>
        <mxCell id="AlHU9FM85FS0rlN2TEWG-19" value="&lt;span style=&quot;color: rgb(0, 0, 0); font-family: &amp;quot;Architects Daughter&amp;quot;; font-size: 12px; font-style: normal; font-variant-ligatures: normal; font-variant-caps: normal; font-weight: 400; letter-spacing: normal; orphans: 2; text-align: center; text-indent: 0px; text-transform: none; widows: 2; word-spacing: 0px; -webkit-text-stroke-width: 0px; background-color: rgb(248, 249, 250); text-decoration-thickness: initial; text-decoration-style: initial; text-decoration-color: initial; float: none; display: inline !important;&quot;&gt;Azure AD&lt;/span&gt;" style="text;whiteSpace=wrap;html=1;fontFamily=Architects Daughter;" vertex="1" parent="1">
          <mxGeometry x="454.45" y="540" width="120" height="30" as="geometry" />
        </mxCell>
        <mxCell id="AlHU9FM85FS0rlN2TEWG-21" value="" style="endArrow=none;html=1;fontFamily=Architects Daughter;fontSource=https%3A%2F%2Ffonts.googleapis.com%2Fcss%3Ffamily%3DArchitects%2BDaughter;endFill=0;startArrow=classic;startFill=1;curved=1;dashed=1;strokeWidth=2;fillColor=#f5f5f5;strokeColor=#666666;" edge="1" parent="1">
          <mxGeometry width="50" height="50" relative="1" as="geometry">
            <mxPoint x="591" y="521.5" as="sourcePoint" />
            <mxPoint x="551" y="521.5" as="targetPoint" />
          </mxGeometry>
        </mxCell>
        <mxCell id="AlHU9FM85FS0rlN2TEWG-22" value="" style="endArrow=classic;html=1;fontFamily=Architects Daughter;fontSource=https%3A%2F%2Ffonts.googleapis.com%2Fcss%3Ffamily%3DArchitects%2BDaughter;endFill=1;startArrow=none;startFill=0;curved=1;dashed=1;strokeWidth=2;fillColor=#f5f5f5;strokeColor=#666666;entryX=0.643;entryY=1.02;entryDx=0;entryDy=0;entryPerimeter=0;" edge="1" parent="1">
          <mxGeometry width="50" height="50" relative="1" as="geometry">
            <mxPoint x="285" y="467" as="sourcePoint" />
            <mxPoint x="285.04999999999995" y="429" as="targetPoint" />
          </mxGeometry>
        </mxCell>
        <mxCell id="AlHU9FM85FS0rlN2TEWG-25" value="Role assignment" style="text;html=1;align=center;verticalAlign=middle;resizable=0;points=[];autosize=1;strokeColor=none;fillColor=none;fontFamily=Architects Daughter;" vertex="1" parent="1">
          <mxGeometry x="730" y="440" width="100" height="20" as="geometry" />
        </mxCell>
        <mxCell id="AlHU9FM85FS0rlN2TEWG-26" value="Grab data" style="text;html=1;align=center;verticalAlign=middle;resizable=0;points=[];autosize=1;strokeColor=none;fillColor=none;fontFamily=Architects Daughter;" vertex="1" parent="1">
          <mxGeometry x="295" y="440" width="70" height="20" as="geometry" />
        </mxCell>
        <mxCell id="AlHU9FM85FS0rlN2TEWG-27" value="Deployment" style="text;html=1;align=center;verticalAlign=middle;resizable=0;points=[];autosize=1;strokeColor=none;fillColor=none;fontFamily=Architects Daughter;" vertex="1" parent="1">
          <mxGeometry x="519.45" y="180" width="80" height="20" as="geometry" />
        </mxCell>
      </root>
    </mxGraphModel>
  </diagram>
</mxfile>
